<svg xmlns="http://www.w3.org/2000/svg" version="1.1" xmlns:xlink="http://www.w3.org/1999/xlink" xmlns:svgjs="http://svgjs.com/svgjs" width="256" height="256" x="0" y="0" viewBox="0 0 24 24" style="enable-background:new 0 0 512 512" xml:space="preserve"><g><path d="M23,22H5a3,3,0,0,1-3-3V1A1,1,0,0,0,0,1V19a5.006,5.006,0,0,0,5,5H23a1,1,0,0,0,0-2Z" fill="#ff8800" data-original="#000000"></path><path d="M6,20a1,1,0,0,0,1-1V12a1,1,0,0,0-2,0v7A1,1,0,0,0,6,20Z" fill="#ff8800" data-original="#000000"></path><path d="M10,10v9a1,1,0,0,0,2,0V10a1,1,0,0,0-2,0Z" fill="#ff8800" data-original="#000000"></path><path d="M15,13v6a1,1,0,0,0,2,0V13a1,1,0,0,0-2,0Z" fill="#ff8800" data-original="#000000"></path><path d="M20,9V19a1,1,0,0,0,2,0V9a1,1,0,0,0-2,0Z" fill="#ff8800" data-original="#000000"></path><path d="M6,9a1,1,0,0,0,.707-.293l3.586-3.586a1.025,1.025,0,0,1,1.414,0l2.172,2.172a3,3,0,0,0,4.242,0l5.586-5.586A1,1,0,0,0,22.293.293L16.707,5.878a1,1,0,0,1-1.414,0L13.121,3.707a3,3,0,0,0-4.242,0L5.293,7.293A1,1,0,0,0,6,9Z" fill="#ff8800" data-original="#000000"></path></g></svg>